HIERARCHY
ROOT SimulationBone
{
	OFFSET 0.000000 0.000000 0.000000
	CHANNELS 6 Xposition Yposition Zposition Zrotation Yrotation Xrotation 
	JOINT Hips
	{
		OFFSET 0.000000 0.000000 0.000000
		CHANNELS 6 Xposition Yposition Zposition Zrotation Yrotation Xrotation 
		JOINT LeftUpLeg
		{
			OFFSET 0.103461 1.857828 10.548504
			CHANNELS 3 Zrotation Yrotation Xrotation
			JOINT LeftLeg
			{
				OFFSET 43.500008 -0.000031 0.000006
				CHANNELS 3 Zrotation Yrotation Xrotation
				JOINT LeftFoot
				{
					OFFSET 42.372200 0.000019 -0.000010
					CHANNELS 3 Zrotation Yrotation Xrotation
					JOINT LeftToe
					{
						OFFSET 17.299999 -0.000000 0.000002
						CHANNELS 3 Zrotation Yrotation Xrotation
						End Site
						{
							OFFSET 0.000000 0.000000 0.000000
						}
					}
				}
			}
		}
		JOINT RightUpLeg
		{
			OFFSET 0.103457 1.857829 -10.548504
			CHANNELS 3 Zrotation Yrotation Xrotation
			JOINT RightLeg
			{
				OFFSET 43.500046 -0.000019 0.000011
				CHANNELS 3 Zrotation Yrotation Xrotation
				JOINT RightFoot
				{
					OFFSET 42.372261 0.000000 0.000008
					CHANNELS 3 Zrotation Yrotation Xrotation
					JOINT RightToe
					{
						OFFSET 17.299990 -0.000006 0.000008
						CHANNELS 3 Zrotation Yrotation Xrotation
						End Site
						{
							OFFSET 0.000000 0.000000 0.000000
						}
					}
				}
			}
		}
		JOINT Spine
		{
			OFFSET 6.901969 -2.603727 -0.000006
			CHANNELS 3 Zrotation Yrotation Xrotation
			JOINT Spine1
			{
				OFFSET 12.588100 -0.000002 0.000002
				CHANNELS 3 Zrotation Yrotation Xrotation
				JOINT Spine2
				{
					OFFSET 12.343195 0.000004 0.000008
					CHANNELS 3 Zrotation Yrotation Xrotation
					JOINT Neck
					{
						OFFSET 25.832905 -0.000008 -0.000002
						CHANNELS 3 Zrotation Yrotation Xrotation
						JOINT Head
						{
							OFFSET 11.766608 0.000010 -0.000008
							CHANNELS 3 Zrotation Yrotation Xrotation
							End Site
							{
								OFFSET 0.000000 0.000000 0.000000
							}
						}
					}
					JOINT LeftShoulder
					{
						OFFSET 19.745903 -1.480370 6.000106
						CHANNELS 3 Zrotation Yrotation Xrotation
						JOINT LeftArm
						{
							OFFSET 11.284119 -0.000006 -0.000014
							CHANNELS 3 Zrotation Yrotation Xrotation
							JOINT LeftForeArm
							{
								OFFSET 33.000050 0.000004 0.000026
								CHANNELS 3 Zrotation Yrotation Xrotation
								JOINT LeftHand
								{
									OFFSET 25.200020 0.000017 0.000004
									CHANNELS 3 Zrotation Yrotation Xrotation
									End Site
									{
										OFFSET 0.000000 0.000000 0.000000
									}
								}
							}
						}
					}
					JOINT RightShoulder
					{
						OFFSET 19.746099 -1.480375 -6.000082
						CHANNELS 3 Zrotation Yrotation Xrotation
						JOINT RightArm
						{
							OFFSET 11.284140 -0.000015 -0.000008
							CHANNELS 3 Zrotation Yrotation Xrotation
							JOINT RightForeArm
							{
								OFFSET 33.000084 0.000016 0.000002
								CHANNELS 3 Zrotation Yrotation Xrotation
								JOINT RightHand
								{
									OFFSET 25.199783 0.000142 0.000437
									CHANNELS 3 Zrotation Yrotation Xrotation
									End Site
									{
										OFFSET 0.000000 0.000000 0.000000
									}
								}
							}
						}
					}
				}
			}
		}
	}
}
MOTION
Frames: 11
Frame Time: 0.016667
-15.887439 0.000000 -78.668167 0.000000 214.648654 0.000000 1.435277 92.234887 -1.231005 95.965280 -2.504233 179.770299 -176.207969 -2.809095 -179.250582 -11.917499 -2.606452 0.713056 81.273064 -0.930586 -2.156013 21.454555 0.003089 -0.000001 -174.628284 1.266985 -179.212942 -14.816502 2.074513 2.675605 85.380463 -1.911204 -0.037216 21.454556 -0.003108 -0.000018 7.643241 -0.139116 0.186959 5.273193 -0.286601 0.367433 4.955092 -0.284235 0.369162 9.804158 3.706794 2.186518 -11.568876 -5.842136 4.369179 -168.122935 -75.867918 -13.601745 -24.431979 56.232361 33.280193 -31.640889 -15.132866 1.270461 1.030865 -12.122297 1.653114 162.901291 69.399230 -16.320631 -23.754951 -50.503221 -34.679970 -32.999339 17.193311 -1.458942 6.669728 4.821742 -12.702928 
-15.988930 0.000000 -78.590303 0.000000 214.213638 0.000000 1.490858 92.225113 -1.213595 96.018367 -2.480391 179.858202 -175.877562 -2.855999 -179.421584 -11.771484 -2.599776 0.604275 81.392174 -0.867041 -2.217808 21.454555 0.003085 -0.000002 -174.477660 1.223405 -179.428878 -14.812691 2.076841 2.605579 85.408619 -1.870975 -0.076793 21.454558 -0.003113 -0.000019 7.609359 -0.139152 0.146646 5.205516 -0.284766 0.286926 4.887411 -0.282885 0.288640 9.841289 3.668853 2.154498 -11.543304 -5.712725 4.290146 -168.254674 -75.895705 -13.466982 -24.660827 56.138009 33.171414 -31.715118 -15.123769 1.271856 1.088008 -12.237432 1.627419 162.858838 69.424656 -16.363211 -23.608198 -50.693953 -34.904154 -33.107698 17.212536 -1.462174 6.593559 4.817980 -12.831265 
-16.090967 0.000000 -78.507775 0.000000 213.768526 0.000000 1.545723 92.214832 -1.195738 96.076172 -2.444569 179.947512 -175.548145 -2.899940 -179.530687 -11.641676 -2.584057 0.452265 81.525810 -0.775704 -2.292108 21.454552 0.003084 -0.000001 -174.314970 1.169984 -179.700705 -14.792601 2.090758 2.560458 85.424261 -1.847665 -0.113915 21.454559 -0.003114 -0.000019 7.575471 -0.135778 0.109330 5.137828 -0.276302 0.212564 4.819720 -0.274875 0.214225 9.888676 3.649840 2.117790 -11.493593 -5.590602 4.208304 -168.414841 -75.938445 -13.303129 -24.904039 56.125100 32.954575 -31.674587 -15.107579 1.272433 1.100877 -12.309341 1.639580 162.873612 69.442876 -16.347168 -23.401979 -50.848705 -35.192630 -33.198717 17.236691 -1.463881 6.510487 4.760736 -12.915162 
-16.193548 0.000000 -78.420840 0.000000 213.312309 0.000000 1.598431 92.204483 -1.178342 96.129869 -2.395481 -179.965829 -175.230293 -2.956303 -179.563447 -11.530235 -2.592863 0.248565 81.672075 -0.646752 -2.363632 21.454551 0.003087 0.000000 -174.157352 1.106398 179.990374 -14.769806 2.109877 2.527421 85.427408 -1.832169 -0.147675 21.454560 -0.003111 -0.000018 7.539573 -0.128043 0.074102 5.066122 -0.259249 0.142568 4.748018 -0.258248 0.144127 9.934581 3.636502 2.078812 -11.407711 -5.465893 4.121883 -168.546542 -75.990303 -13.168416 -25.117736 56.170934 32.765673 -31.579536 -15.100705 1.272503 1.109308 -12.373119 1.618116 162.912701 69.461942 -16.306048 -23.136800 -50.976812 -35.517638 -33.264359 17.256709 -1.464697 6.426151 4.646938 -13.009411 
-16.296362 0.000000 -78.329918 0.000000 212.843706 0.000000 1.646828 92.194690 -1.161685 96.169157 -2.333632 -179.887538 -174.932633 -3.037028 -179.526953 -11.432260 -2.651746 -0.004479 81.825478 -0.478675 -2.418778 21.454551 0.003091 0.000000 -174.025098 1.034532 179.665362 -14.759965 2.128274 2.490658 85.419582 -1.813530 -0.178222 21.454558 -0.003108 -0.000017 7.499841 -0.115796 0.040507 4.986749 -0.233275 0.076029 4.668655 -0.232674 0.077434 9.960492 3.614393 2.036733 -11.274828 -5.326931 4.025466 -168.589814 -76.044001 -13.124178 -25.261908 56.246275 32.732729 -31.495156 -15.112230 1.271809 1.163705 -12.464124 1.501544 162.955111 69.489942 -16.261132 -22.819182 -51.085497 -35.853983 -33.299176 17.261935 -1.465201 6.346609 4.495165 -13.166868 
-16.399174 0.000000 -78.235509 0.000000 212.361525 0.000000 1.685923 92.186333 -1.143021 96.182080 -2.263664 -179.826666 -174.660996 -3.126200 -179.534514 -11.335826 -2.714741 -0.250104 81.976223 -0.314404 -2.467510 21.454553 0.003092 -0.000000 -173.937106 0.960406 179.338911 -14.768522 2.144058 2.434560 85.403626 -1.782010 -0.211149 21.454557 -0.003106 -0.000017 7.454863 -0.101913 0.011605 4.896859 -0.204272 0.018927 4.578773 -0.204013 0.020161 9.953940 3.584704 1.986275 -11.099884 -5.171003 3.913682 -168.575311 -76.085966 -13.139016 -25.330543 56.328575 32.807105 -31.433769 -15.136024 1.270619 1.216201 -12.515918 1.401647 163.043281 69.514418 -16.169295 -22.445401 -51.159554 -36.193079 -33.337493 17.250527 -1.465399 6.285920 4.350083 -13.357426 
-16.501888 0.000000 -78.138518 0.000000 211.866198 0.000000 1.712488 92.179919 -1.119751 96.161081 -2.189663 -179.793070 -174.416119 -3.204901 -179.693508 -11.230295 -2.732071 -0.434570 82.116620 -0.195229 -2.522864 21.454552 0.003087 -0.000001 -173.904004 0.888738 179.021914 -14.795321 2.155313 2.346706 85.382685 -1.729979 -0.251560 21.454559 -0.003107 -0.000017 7.404019 -0.089338 -0.009752 4.795205 -0.178250 -0.023165 4.477117 -0.178248 -0.022083 9.909667 3.555502 1.923017 -10.895192 -5.001425 3.784571 -168.546919 -76.103374 -13.168014 -25.325823 56.399708 32.914124 -31.394915 -15.161292 1.269334 1.219990 -12.480380 1.426795 163.216303 69.520700 -15.990944 -22.013587 -51.182648 -36.532162 -33.408802 17.222752 -1.465184 6.250329 4.258551 -13.535705 
-16.604182 0.000000 -78.040110 0.000000 211.360473 0.000000 1.732695 92.174217 -1.092152 96.118113 -2.110492 -179.792399 -174.182378 -3.273809 -179.982083 -11.115110 -2.709870 -0.571321 82.251712 -0.111657 -2.585592 21.454551 0.003082 -0.000001 -173.904430 0.815598 178.716353 -14.828006 2.156076 2.227242 85.359851 -1.657007 -0.297153 21.454562 -0.003109 -0.000017 7.349450 -0.078274 -0.025055 4.686083 -0.155533 -0.053233 4.367990 -0.155715 -0.052284 9.845204 3.546814 1.850309 -10.686652 -4.836807 3.649724 -168.507801 -76.092885 -13.207983 -25.247423 56.453912 33.052582 -31.379821 -15.173810 1.268218 1.232874 -12.482999 1.497040 163.436276 69.506242 -15.765204 -21.537281 -51.156497 -36.877437 -33.483482 17.178508 -1.464580 6.208501 4.249321 -13.677512 
-16.704939 0.000000 -77.941029 0.000000 210.846996 0.000000 1.754375 92.167753 -1.060465 96.068278 -2.024737 -179.824550 -173.944267 -3.338639 179.652720 -10.994226 -2.667294 -0.687858 82.389054 -0.043531 -2.653524 21.454551 0.003083 -0.000001 -173.912116 0.736458 178.423609 -14.853588 2.141646 2.079934 85.337904 -1.564993 -0.344630 21.454560 -0.003110 -0.000017 7.293680 -0.068315 -0.037082 4.574559 -0.135178 -0.076811 4.256465 -0.135501 -0.075983 9.782394 3.579138 1.772010 -10.501538 -4.696899 3.521306 -168.453546 -76.055963 -13.263481 -25.093079 56.490070 33.234992 -31.387047 -15.161430 1.267257 1.305400 -12.631338 1.517194 163.658775 69.472587 -15.537728 -21.036157 -51.087832 -37.237141 -33.525008 17.119848 -1.463669 6.135537 4.327971 -13.760700 
-16.802553 0.000000 -77.841824 0.000000 210.326003 0.000000 1.781577 92.159813 -1.023886 96.019734 -1.934120 -179.870939 -173.702598 -3.404402 179.259380 -10.880353 -2.619949 -0.800515 82.533573 0.021187 -2.725571 21.454553 0.003088 -0.000000 -173.913391 0.652103 178.151783 -14.868880 2.116302 1.910417 85.318426 -1.457968 -0.394145 21.454557 -0.003111 -0.000018 7.238033 -0.059368 -0.049410 4.463272 -0.116855 -0.101050 4.145180 -0.117322 -0.100334 9.737735 3.662738 1.686478 -10.359636 -4.590075 3.401140 -168.390089 -76.003792 -13.328416 -24.855156 56.513369 33.455461 -31.402774 -15.123757 1.265466 1.355322 -12.787527 1.519737 163.890798 69.424765 -15.301033 -20.539370 -50.985394 -37.618348 -33.528291 17.057834 -1.462489 6.069865 4.426173 -13.750095 
-16.895838 0.000000 -77.743791 0.000000 209.796371 0.000000 1.816891 92.149462 -0.982293 95.978251 -1.838925 -179.913567 -173.460254 -3.479007 178.887477 -10.785033 -2.586406 -0.927459 82.691343 0.096356 -2.798402 21.454553 0.003092 0.000000 -173.901107 0.562618 177.901532 -14.876087 2.087028 1.726519 85.302659 -1.341571 -0.446206 21.454556 -0.003111 -0.000018 7.183627 -0.050899 -0.064705 4.354450 -0.099404 -0.131265 4.036360 -0.100053 -0.130658 9.722915 3.796417 1.591026 -10.274683 -4.513364 3.285448 -168.321073 -75.947945 -13.399025 -24.534714 56.531205 33.705416 -31.407815 -15.065060 1.261892 1.301870 -12.799388 1.551717 164.148604 69.368975 -15.038049 -20.072645 -50.861523 -38.019199 -33.497248 17.007318 -1.461067 6.058850 4.472982 -13.624278 
